<?xml version="1.0" standalone="no"?>
<!DOCTYPE svg PUBLIC "-//W3C//DTD SVG 20010904//EN"
 "http://www.w3.org/TR/2001/REC-SVG-20010904/DTD/svg10.dtd">
<svg version="1.0" xmlns="http://www.w3.org/2000/svg"
 width="211.000000pt" height="205.000000pt" viewBox="0 0 211.000000 205.000000"
 preserveAspectRatio="xMidYMid meet">

<g transform="translate(0.000000,205.000000) scale(0.100000,-0.100000)"
fill="#000000" stroke="none">
<path d="M905 1995 c-213 -39 -378 -126 -530 -279 -169 -170 -265 -386 -281
-629 -34 -520 332 -976 840 -1046 105 -15 167 -14 271 4 210 37 377 123 528
272 185 183 285 426 287 702 2 187 -41 350 -137 515 -69 118 -238 284 -356
349 -200 110 -419 150 -622 112z m332 -41 c291 -60 527 -245 657 -517 40 -82
86 -232 86 -278 0 -22 -32 -49 -37 -31 -4 9 -12 7 -33 -8 -40 -29 -76 -25
-145 15 -33 20 -97 54 -142 76 -46 22 -83 44 -83 48 0 5 -21 19 -47 33 -27 14
-79 41 -116 61 -38 21 -77 37 -87 37 -45 0 -51 10 -24 45 22 30 29 33 61 28
l35 -6 -22 42 c-11 23 -20 50 -19 59 4 42 -3 62 -30 91 -24 26 -37 31 -73 31
-24 0 -54 -7 -66 -16 -24 -17 -59 -84 -64 -123 -2 -13 -11 -29 -20 -34 -18
-12 -20 -11 -113 43 -27 16 -57 33 -65 37 -8 3 -18 10 -21 15 -3 5 -23 11 -45
15 -21 3 -48 14 -60 24 -11 11 -43 26 -72 34 -50 15 -51 17 -58 60 -3 25 -12
49 -19 53 -7 4 -17 17 -23 29 -11 19 -8 23 24 42 165 97 421 137 621 95z
m-697 -214 c0 -51 96 -157 168 -185 23 -10 42 -24 42 -31 0 -8 21 -28 46 -44
63 -39 78 -61 59 -86 -9 -12 -14 -44 -15 -85 0 -55 -5 -76 -31 -125 -18 -32
-40 -70 -51 -84 -47 -61 -88 -131 -88 -149 0 -26 22 -42 68 -48 37 -5 39 -4
45 26 l7 32 35 -35 c42 -43 44 -61 8 -80 -44 -23 -87 -74 -139 -166 -26 -47
-56 -97 -66 -112 -38 -56 -15 -142 46 -171 20 -9 51 -24 69 -33 33 -15 75 -52
155 -137 32 -34 44 -57 48 -89 3 -24 5 -47 5 -53 -3 -25 -194 26 -304 81 -237
120 -410 332 -488 599 -21 70 -24 101 -24 255 0 155 3 184 24 255 53 180 144
329 275 451 73 68 82 73 93 58 7 -10 13 -30 13 -44z m797 -541 c15 -6 38 -15
51 -20 12 -5 33 -14 46 -20 13 -6 37 -11 53 -11 15 0 35 -6 43 -14 22 -19 84
-39 181 -59 78 -16 87 -21 132 -66 26 -27 55 -49 63 -49 20 0 18 14 -6 35 -28
25 -25 32 16 50 66 27 74 23 74 -42 0 -134 -53 -330 -121 -452 -99 -174 -270
-329 -451 -408 -94 -41 -231 -72 -313 -73 l-60 0 1 123 c0 67 -2 128 -4 135
-2 6 -14 12 -26 12 -14 0 -41 22 -76 61 -30 34 -67 74 -82 89 l-27 27 63 59
c34 33 81 73 103 91 l41 32 22 -22 c12 -12 31 -36 43 -54 85 -123 190 -262
203 -267 27 -10 69 -7 90 8 17 13 19 25 15 138 -9 292 -9 281 12 305 35 39 -5
89 -52 64 -11 -6 -35 -11 -53 -11 -19 0 -43 -6 -54 -14 -18 -14 -18 -16 -1
-44 19 -34 22 -52 7 -52 -5 0 -10 5 -10 11 0 7 -15 44 -34 83 -51 107 -52 114
-21 122 14 3 27 5 28 3 28 -42 61 -79 70 -79 35 0 89 24 103 46 16 24 15 26
-33 77 -63 67 -75 88 -77 148 -3 53 -1 55 41 38z"/>
</g>
</svg>
